<svg xmlns="http://www.w3.org/2000/svg" xmlns:xlink="http://www.w3.org/1999/xlink" viewBox="0 0 508.39 508.39"><defs><style>.cls-1{stroke:#603813;fill:url(#radial-gradient);}.cls-1,.cls-2,.cls-3{stroke-miterlimit:10;}.cls-1,.cls-2{stroke-width:10px;}.cls-2{fill:none;}.cls-2,.cls-3{stroke:#000;}.cls-3{stroke-width:22px;fill:url(#radial-gradient-2);}</style><radialGradient id="radial-gradient" cx="254.2" cy="254.2" r="249.2" gradientUnits="userSpaceOnUse"><stop offset="0"/><stop offset="0.07" stop-color="#000603"/><stop offset="0.16" stop-color="#00190d"/><stop offset="0.27" stop-color="#00361d"/><stop offset="0.4" stop-color="#005f32"/><stop offset="0.42" stop-color="#006837"/><stop offset="0.52" stop-color="#13823d"/><stop offset="0.68" stop-color="#2fa747"/><stop offset="0.76" stop-color="#39b54a"/><stop offset="0.8" stop-color="#55bb46"/><stop offset="0.84" stop-color="#6dc043"/><stop offset="0.89" stop-color="#7ec341"/><stop offset="0.94" stop-color="#89c53f"/><stop offset="1" stop-color="#8cc63f"/></radialGradient><radialGradient id="radial-gradient-2" cx="254.2" cy="255.2" r="77.8" gradientUnits="userSpaceOnUse"><stop offset="0"/><stop offset="0" stop-color="#060606"/><stop offset="0" stop-color="#191919"/><stop offset="0" stop-color="#363636"/><stop offset="0" stop-color="#606060"/><stop offset="0" stop-color="#959595"/><stop offset="0" stop-color="#d5d5d5"/><stop offset="0" stop-color="#fff"/></radialGradient></defs><title>kiwii</title><g id="Layer_3" data-name="Layer 3"><circle class="cls-1" cx="254.2" cy="254.2" r="249.2"/></g><g id="Layer_2" data-name="Layer 2"><circle cx="113.12" cy="277.56" r="10"/><circle cx="209.91" cy="369.32" r="10"/><circle cx="152.47" cy="288.71" r="10"/><circle cx="160.47" cy="159.4" r="10"/><circle cx="125.46" cy="176.62" r="12.34"/><circle cx="353.42" cy="292.23" r="10"/><circle cx="134.69" cy="215.91" r="10"/><circle cx="352.58" cy="144.64" r="10"/><circle cx="381.75" cy="242.86" r="10"/><circle cx="288.72" cy="112.42" r="10"/><circle cx="277.97" cy="369.32" r="10"/><circle cx="345.28" cy="188.94" r="10"/><circle cx="96.91" cy="242.86" r="12.34"/><circle cx="404.53" cy="276.37" r="12.34"/><circle cx="381.75" cy="203.57" r="12.34"/><circle cx="320.96" cy="141.08" r="12.34"/><circle cx="251.92" cy="102.42" r="12.34"/><circle cx="183.14" cy="132.3" r="12.34"/><circle cx="137.79" cy="325.43" r="12.34"/><circle cx="170.8" cy="369.32" r="12.34"/><circle cx="251.92" cy="408.58" r="12.34"/><circle cx="316.36" cy="369.32" r="12.34"/><circle cx="369.41" cy="327.97" r="12.34"/><line class="cls-2" x1="96.91" y1="242.86" x2="254.2" y2="255.2"/><line class="cls-2" x1="125.46" y1="176.62" x2="254.2" y2="255.2"/><line class="cls-2" x1="254.2" y1="255.2" x2="404.53" y2="276.37"/><line class="cls-2" x1="381.75" y1="203.57" x2="254.2" y2="255.2"/><line class="cls-2" x1="320.96" y1="141.08" x2="254.2" y2="255.2"/><line class="cls-2" x1="251.92" y1="102.42" x2="254.2" y2="254.2"/><line class="cls-2" x1="183.14" y1="132.3" x2="254.2" y2="255.2"/><line class="cls-2" x1="137.79" y1="325.43" x2="254.2" y2="254.2"/><line class="cls-2" x1="170.8" y1="369.32" x2="253.06" y2="255.2"/><line class="cls-2" x1="251.92" y1="408.58" x2="254.2" y2="255.2"/><line class="cls-2" x1="316.36" y1="369.32" x2="254.2" y2="255.2"/><line class="cls-2" x1="369.41" y1="325.43" x2="254.2" y2="255.2"/><circle class="cls-3" cx="254.2" cy="255.2" r="77.8"/></g></svg>