<svg id="Layer_1" data-name="Layer 1" xmlns="http://www.w3.org/2000/svg" viewBox="0 0 480.76 497.85"><defs><style>.cls-1,.cls-3,.cls-4{fill:#fff;}.cls-1{stroke:#000;stroke-miterlimit:10;stroke-width:7px;}.cls-2{fill:#2c920f;}.cls-4{isolation:isolate;font-size:325.88px;font-family:TimesNewRomanPSMT, Times New Roman;}</style></defs><title>coin</title><ellipse class="cls-1" cx="240.38" cy="248.92" rx="236.88" ry="245.42"/><ellipse class="cls-2" cx="240.38" cy="248.92" rx="207.17" ry="214.64"/><path class="cls-3" d="M356.55,118.56l3.12,58h-7.91C349,164,348.15,162,345.51,156.89c-4.3-8.27-10-12.36-17.18-16.28s-16.56-5.88-28.22-5.88h-48.5V378.2c0,17.82,27.74,18.33,38.71,18.33h9.79v7.91H180.35v-7.91h10c11.94,0,39.79-2.08,39.79-18.33V134.73H186.39q-19.78,0-28.12,3c-7.22,2.71-13.4,5.91-18.53,13.61s-6.82,12.37-9.17,25.21h-7.91l3.33-58Z" transform="translate(-2.5 -2.72)"/><text class="cls-4" transform="translate(124.56 370.11)">C</text></svg>