<?xml version="1.0" encoding="utf-8"?>
<!-- Generator: Adobe Illustrator 23.0.1, SVG Export Plug-In . SVG Version: 6.00 Build 0)  -->
<svg version="1.1" id="Layer_1" xmlns="http://www.w3.org/2000/svg" xmlns:xlink="http://www.w3.org/1999/xlink" x="0px" y="0px"
	 viewBox="0 0 485.8 503.3" style="enable-background:new 0 0 485.8 503.3;" xml:space="preserve">
<style type="text/css">
	.st0{fill:#FFFFFF;stroke:#000000;stroke-width:7;stroke-miterlimit:10;}
	.st1{fill:#2C920F;}
	.st2{fill:#FFFFFF;}
	.st3{font-family:'TimesNewRomanPSMT';}
	.st4{font-size:325.88px;}
</style>
<title>taskcoin</title>
<ellipse class="st0" cx="242.9" cy="251.6" rx="236.9" ry="245.4"/>
<ellipse class="st1" cx="242.9" cy="251.6" rx="207.2" ry="214.6"/>
<path class="st2" d="M356.6,118.6l3.1,58h-7.9c-2.8-12.5-3.6-14.5-6.3-19.7c-4.3-8.3-10-12.4-17.2-16.3s-16.6-5.9-28.2-5.9h-48.5
	v243.5c0,17.8,27.7,18.3,38.7,18.3h9.8v7.9H180.3v-7.9h10c11.9,0,39.8-2.1,39.8-18.3V134.7h-43.8c-13.2,0-22.6,1-28.1,3
	c-7.2,2.7-13.4,5.9-18.5,13.6s-6.8,12.4-9.2,25.2h-7.9l3.3-58L356.6,118.6z"/>
<text transform="matrix(1 0 0 1 127.06 372.83)" class="st2 st3 st4">C</text>
</svg>
